<svg xmlns="http://www.w3.org/2000/svg" width="720" height="1280" viewBox="0 0 720 1280">
  <defs>
    <linearGradient id="bg" x1="0" x2="0" y1="0" y2="1">
      <stop offset="0" stop-color="#071110"/>
      <stop offset="1" stop-color="#0d1c1d"/>
    </linearGradient>
    <linearGradient id="cover" x1="0" x2="1" y1="0" y2="1">
      <stop offset="0" stop-color="#ff79b0"/>
      <stop offset=".55" stop-color="#ffe25d"/>
      <stop offset="1" stop-color="#5ad6c8"/>
    </linearGradient>
    <filter id="shadow" x="-20%" y="-20%" width="140%" height="140%">
      <feDropShadow dx="0" dy="14" stdDeviation="18" flood-color="#000000" flood-opacity=".32"/>
    </filter>
  </defs>
  <rect width="720" height="1280" fill="url(#bg)"/>
  <text x="42" y="74" fill="#eaf4f2" font-family="Arial, sans-serif" font-size="24">22:40</text>
  <circle cx="632" cy="62" r="5" fill="#c7d3d0"/>
  <circle cx="654" cy="62" r="5" fill="#c7d3d0"/>
  <circle cx="676" cy="62" r="5" fill="#c7d3d0"/>

  <text x="44" y="150" fill="#f4fbfa" font-family="Arial, sans-serif" font-size="44" font-weight="800">书籍分块</text>
  <rect x="44" y="184" width="648" height="222" rx="34" fill="#13292b" stroke="#315456" filter="url(#shadow)"/>
  <rect x="70" y="212" width="118" height="166" rx="18" fill="url(#cover)"/>
  <text x="92" y="300" fill="#ffffff" font-family="Arial, sans-serif" font-size="34" font-weight="800">VOL</text>
  <text x="218" y="238" fill="#f4fbfa" font-family="Arial, sans-serif" font-size="30" font-weight="800">玩乐关系 第一卷</text>
  <text x="218" y="282" fill="#a7e6ce" font-family="Arial, sans-serif" font-size="22">葵せきな</text>
  <rect x="218" y="312" width="110" height="38" rx="14" fill="#244244"/>
  <text x="250" y="338" fill="#c7d3d0" font-family="Arial, sans-serif" font-size="18">16 章</text>
  <rect x="344" y="312" width="128" height="38" rx="14" fill="#244244"/>
  <text x="372" y="338" fill="#c7d3d0" font-family="Arial, sans-serif" font-size="18">12.4万字</text>
  <rect x="218" y="366" width="438" height="8" rx="4" fill="#2a4a4c"/>
  <rect x="218" y="366" width="164" height="8" rx="4" fill="#8ee6df"/>

  <text x="44" y="470" fill="#f4fbfa" font-family="Arial, sans-serif" font-size="28" font-weight="800">阅读块</text>
  <rect x="44" y="498" width="648" height="132" rx="28" fill="#203a3d" stroke="#3c6063"/>
  <text x="72" y="544" fill="#eaf4f2" font-family="Arial, sans-serif" font-size="24" font-weight="700">当前：第一话 捅骰子问题</text>
  <text x="72" y="584" fill="#aebdb9" font-family="Arial, sans-serif" font-size="20">第 2 / 16 章 · 第 38 / 113 页</text>
  <rect x="492" y="530" width="130" height="52" rx="18" fill="#8ee6df"/>
  <text x="523" y="564" fill="#0b2021" font-family="Arial, sans-serif" font-size="22" font-weight="800">继续</text>

  <text x="44" y="704" fill="#f4fbfa" font-family="Arial, sans-serif" font-size="28" font-weight="800">按卷分块</text>
  <g transform="translate(44 735)">
    <rect width="192" height="178" rx="26" fill="#1a3436" stroke="#8ee6df" stroke-width="2"/>
    <text x="24" y="45" fill="#8ee6df" font-family="Arial, sans-serif" font-size="22" font-weight="800">第一卷</text>
    <text x="24" y="83" fill="#f4fbfa" font-family="Arial, sans-serif" font-size="18">16 章 · 12.4万字</text>
    <text x="24" y="121" fill="#aebdb9" font-family="Arial, sans-serif" font-size="17">正在阅读</text>
    <rect x="24" y="146" width="144" height="6" rx="3" fill="#2b5052"/>
    <rect x="24" y="146" width="56" height="6" rx="3" fill="#8ee6df"/>
  </g>
  <g transform="translate(260 735)">
    <rect width="192" height="178" rx="26" fill="#13292b" stroke="#315456"/>
    <text x="24" y="45" fill="#f4fbfa" font-family="Arial, sans-serif" font-size="22" font-weight="800">第二卷</text>
    <text x="24" y="83" fill="#c7d3d0" font-family="Arial, sans-serif" font-size="18">23 章 · 18.1万字</text>
    <text x="24" y="121" fill="#7f918d" font-family="Arial, sans-serif" font-size="17">未开始</text>
    <rect x="24" y="146" width="144" height="6" rx="3" fill="#2b5052"/>
  </g>
  <g transform="translate(476 735)">
    <rect width="192" height="178" rx="26" fill="#13292b" stroke="#315456"/>
    <text x="24" y="45" fill="#f4fbfa" font-family="Arial, sans-serif" font-size="22" font-weight="800">特典</text>
    <text x="24" y="83" fill="#c7d3d0" font-family="Arial, sans-serif" font-size="18">8 章 · 4.2万字</text>
    <text x="24" y="121" fill="#7f918d" font-family="Arial, sans-serif" font-size="17">短篇合集</text>
    <rect x="24" y="146" width="144" height="6" rx="3" fill="#2b5052"/>
  </g>

  <rect x="44" y="960" width="648" height="94" rx="24" fill="#13292b" stroke="#315456"/>
  <text x="76" y="1016" fill="#f4fbfa" font-family="Arial, sans-serif" font-size="24" font-weight="800">001 今天开始当萝莉牧师</text>
  <text x="604" y="1016" fill="#8ee6df" font-family="Arial, sans-serif" font-size="20">2/113</text>
  <rect x="44" y="1072" width="648" height="94" rx="24" fill="#102426" stroke="#2d4b4e"/>
  <text x="76" y="1128" fill="#dbe8e5" font-family="Arial, sans-serif" font-size="24" font-weight="700">002 牧师好像也挺适合刺客的说</text>
  <text x="604" y="1128" fill="#7f918d" font-family="Arial, sans-serif" font-size="20">0/98</text>
  <rect x="44" y="1184" width="648" height="94" rx="24" fill="#102426" stroke="#2d4b4e"/>
  <text x="76" y="1240" fill="#dbe8e5" font-family="Arial, sans-serif" font-size="24" font-weight="700">003 来自五百年前</text>
  <text x="604" y="1240" fill="#7f918d" font-family="Arial, sans-serif" font-size="20">0/84</text>
</svg>
