<svg xmlns="http://www.w3.org/2000/svg" width="768" height="1365" viewBox="0 0 768 1365">
  <defs>
    <linearGradient id="cover" x1="0" y1="0" x2="0" y2="1">
      <stop offset="0" stop-color="#4fd5cf"/>
      <stop offset="1" stop-color="#2d9a96"/>
    </linearGradient>
    <linearGradient id="primary" x1="0" y1="0" x2="1" y2="1">
      <stop offset="0" stop-color="#54ddd3"/>
      <stop offset="1" stop-color="#32c2b6"/>
    </linearGradient>
    <filter id="shadow" x="-20%" y="-20%" width="140%" height="140%">
      <feDropShadow dx="0" dy="10" stdDeviation="14" flood-color="#000000" flood-opacity="0.22"/>
    </filter>
  </defs>

  <rect width="768" height="1365" rx="34" fill="#071313"/>
  <rect y="0" width="768" height="38" fill="#0d1f20"/>
  <text x="30" y="25" font-family="Inter, system-ui, sans-serif" font-size="20" fill="#f5f6f6" font-weight="700">1:12</text>
  <text x="650" y="25" font-family="Inter, system-ui, sans-serif" font-size="18" fill="#f5f6f6" font-weight="700">Wi-Fi 74</text>

  <!-- content guides -->
  <line x1="40" y1="210" x2="728" y2="210" stroke="#58d9d2" stroke-width="1" stroke-opacity="0.18" stroke-dasharray="7 8"/>
  <line x1="40" y1="78" x2="40" y2="1190" stroke="#58d9d2" stroke-width="1" stroke-opacity="0.14" stroke-dasharray="7 8"/>
  <line x1="728" y1="78" x2="728" y2="1190" stroke="#58d9d2" stroke-width="1" stroke-opacity="0.14" stroke-dasharray="7 8"/>

  <text x="40" y="124" font-family="Inter, system-ui, sans-serif" font-size="48" fill="#f4f7f7" font-weight="800" letter-spacing="-2">阅读中</text>

  <!-- top stats cards, aligned to the main card right edge -->
  <g filter="url(#shadow)">
    <rect x="250" y="74" width="212" height="104" rx="24" fill="#1a3335" stroke="#365d60" stroke-width="1.5"/>
    <rect x="480" y="74" width="212" height="104" rx="24" fill="#1a3335" stroke="#365d60" stroke-width="1.5"/>
  </g>
  <g font-family="Inter, system-ui, sans-serif">
    <text x="276" y="111" font-size="18" fill="#a7b9ba" font-weight="650">本月阅读</text>
    <text x="276" y="153" font-size="34" fill="#f5f7f7" font-weight="850" letter-spacing="-1">3 分钟</text>
    <circle cx="430" cy="111" r="8" fill="#9fe9e2"/>
    <path d="M430 106v5l4 3" fill="none" stroke="#163435" stroke-width="2.2" stroke-linecap="round" stroke-linejoin="round"/>

    <text x="506" y="111" font-size="18" fill="#a7b9ba" font-weight="650">本周阅读</text>
    <text x="506" y="153" font-size="34" fill="#f5f7f7" font-weight="850" letter-spacing="-1">1 分钟</text>
    <circle cx="660" cy="111" r="8" fill="#9fe9e2"/>
    <path d="M660 106v5l4 3" fill="none" stroke="#163435" stroke-width="2.2" stroke-linecap="round" stroke-linejoin="round"/>
  </g>

  <text x="40" y="210" font-family="Inter, system-ui, sans-serif" font-size="25" fill="#d4d0db" font-weight="800">继续阅读</text>

  <!-- continue reading card -->
  <g filter="url(#shadow)">
    <rect x="40" y="246" width="688" height="378" rx="32" fill="#193436" stroke="#4d777b" stroke-width="2"/>
  </g>
  <rect x="74" y="284" width="184" height="244" rx="22" fill="url(#cover)"/>
  <text x="94" y="324" font-family="Inter, system-ui, sans-serif" font-size="18" fill="#ecffff" font-weight="700">今天依旧是人设未</text>
  <text x="94" y="352" font-family="Inter, system-ui, sans-serif" font-size="18" fill="#ecffff" font-weight="700">崩的牧师小姐</text>
  <text x="94" y="380" font-family="Inter, system-ui, sans-serif" font-size="18" fill="#ecffff" font-weight="700">1-532</text>
  <text x="205" y="495" font-family="Inter, system-ui, sans-serif" font-size="30" fill="#def3f2" font-weight="700">TXT</text>

  <text x="290" y="318" font-family="Inter, system-ui, sans-serif" font-size="32" fill="#f5f7f7" font-weight="850" letter-spacing="-1">今天依旧是人设未崩的牧师小姐</text>
  <text x="290" y="358" font-family="Inter, system-ui, sans-serif" font-size="32" fill="#f5f7f7" font-weight="850" letter-spacing="-1">1-532</text>
  <text x="290" y="404" font-family="Inter, system-ui, sans-serif" font-size="20" fill="#95e5df" font-weight="650">013太丢人了</text>
  <rect x="290" y="438" width="132" height="54" rx="18" fill="#263f42"/>
  <circle cx="315" cy="465" r="10" fill="none" stroke="#cfd2dd" stroke-width="3"/>
  <path d="M315 458v8l6 4" stroke="#cfd2dd" stroke-width="2.5" fill="none" stroke-linecap="round"/>
  <text x="338" y="473" font-family="Inter, system-ui, sans-serif" font-size="19" fill="#d7d4dd" font-weight="700">进度 3%</text>

  <rect x="74" y="552" width="652" height="62" rx="20" fill="url(#primary)"/>
  <text x="345" y="590" text-anchor="middle" font-family="Inter, system-ui, sans-serif" font-size="20" fill="#ffffff" font-weight="850">▰  继续上次阅读</text>

  <text x="40" y="698" font-family="Inter, system-ui, sans-serif" font-size="25" fill="#d4d0db" font-weight="800">最近阅读（4）</text>
  <g>
    <rect x="40" y="742" width="126" height="154" rx="18" fill="url(#cover)"/>
    <text x="60" y="779" font-family="Inter, system-ui, sans-serif" font-size="15" fill="#ecffff" font-weight="700">今天依旧是</text>
    <text x="60" y="803" font-family="Inter, system-ui, sans-serif" font-size="15" fill="#ecffff" font-weight="700">人设未崩的</text>
    <text x="60" y="827" font-family="Inter, system-ui, sans-serif" font-size="15" fill="#ecffff" font-weight="700">牧师小姐</text>
    <text x="118" y="870" font-family="Inter, system-ui, sans-serif" font-size="25" fill="#def3f2" font-weight="700">TXT</text>
    <text x="190" y="770" font-family="Inter, system-ui, sans-serif" font-size="24" fill="#f5f7f7" font-weight="850">今天依旧是人设未崩的牧师小姐 1-532</text>
    <text x="190" y="814" font-family="Inter, system-ui, sans-serif" font-size="17" fill="#95e5df" font-weight="650">本地  TXT</text>
    <text x="190" y="850" font-family="Inter, system-ui, sans-serif" font-size="18" fill="#c6c2cf" font-weight="650">013太丢人了</text>
    <text x="190" y="878" font-family="Inter, system-ui, sans-serif" font-size="16" fill="#b5afbf" font-weight="650">今天  01:08</text>
    <text x="190" y="902" font-family="Inter, system-ui, sans-serif" font-size="15" fill="#9f98aa" font-weight="650">127万字</text>
    <rect x="190" y="914" width="538" height="5" rx="3" fill="#385a5e"/>
    <rect x="190" y="914" width="18" height="5" rx="3" fill="#9eece5"/>
  </g>

  <g opacity="0.96">
    <rect x="40" y="952" width="126" height="154" rx="18" fill="#f6a538"/>
    <text x="190" y="980" font-family="Inter, system-ui, sans-serif" font-size="24" fill="#f5f7f7" font-weight="850">玩乐关系 第一卷</text>
    <text x="190" y="1024" font-family="Inter, system-ui, sans-serif" font-size="17" fill="#95e5df" font-weight="650">葵せきな</text>
    <text x="190" y="1060" font-family="Inter, system-ui, sans-serif" font-size="18" fill="#c6c2cf" font-weight="650">【第三话】隐藏身份的困境（Day93）</text>
    <text x="190" y="1088" font-family="Inter, system-ui, sans-serif" font-size="16" fill="#b5afbf" font-weight="650">今天  00:39</text>
    <text x="190" y="1112" font-family="Inter, system-ui, sans-serif" font-size="15" fill="#9f98aa" font-weight="650">10.4万字</text>
    <rect x="190" y="1124" width="538" height="5" rx="3" fill="#385a5e"/>
    <rect x="190" y="1124" width="134" height="5" rx="3" fill="#9eece5"/>
  </g>

  <rect x="0" y="1228" width="768" height="137" fill="#132a2d"/>
  <g font-family="Inter, system-ui, sans-serif" font-size="16" fill="#d6d2dc" font-weight="700">
    <rect x="50" y="1260" width="90" height="50" rx="25" fill="#365b61"/>
    <text x="96" y="1330" text-anchor="middle">阅读中</text>
    <text x="282" y="1330" text-anchor="middle">书架</text>
    <text x="496" y="1330" text-anchor="middle">统计</text>
    <text x="658" y="1330" text-anchor="middle">设置</text>
  </g>
</svg>
